<svg width="163" height="35" fill="none" xmlns="http://www.w3.org/2000/svg"><g filter="url(#filter0_d)"><path fill-rule="evenodd" clip-rule="evenodd" d="M-.151.702v33.6h13.532a15.721 15.721 0 0011.72-4.824 16.459 16.459 0 004.712-11.976 16.457 16.457 0 00-4.712-11.976A15.724 15.724 0 0013.381.702H-.151zM7.582 26.91V8.091h5.8a8.646 8.646 0 016.5 2.568 9.408 9.408 0 012.489 6.84 9.406 9.406 0 01-2.489 6.84 8.642 8.642 0 01-6.5 2.568h-5.8v.003zm34.8-5.952h12.082v-7.3H42.378V8.091h13.291V.702H34.645v33.6H55.91V26.91H42.378v-5.952h.004zm36.343 13.344L89.744.702h-8.458l-7.491 24.72L66.304.702h-8.457l11.019 33.6h9.859zm14.4 0h7.733V.702h-7.733v33.6zm38.615-1.416a15.508 15.508 0 006.041-5.688l-6.67-3.84a7.481 7.481 0 01-3.165 3.024 9.873 9.873 0 01-4.664 1.1 9.594 9.594 0 01-7.177-2.736 9.911 9.911 0 01-2.682-7.248 9.91 9.91 0 012.682-7.248 9.593 9.593 0 017.177-2.736 9.897 9.897 0 014.639 1.08 7.589 7.589 0 013.19 3.048l6.67-3.84a15.874 15.874 0 00-6.09-5.688 17.42 17.42 0 00-8.409-2.088c-9.779-.272-17.797 7.691-17.591 17.472-.208 9.781 7.809 17.747 17.588 17.476 2.95.027 5.859-.691 8.458-2.088h.003zm17.881-11.928h12.082v-7.3h-12.085V8.091h13.29V.702h-21.023v33.6h21.265V26.91h-13.532v-5.952h.003z" fill="#000"/><path d="M137.077 7.63a15.372 15.372 0 00-5.619-5.074l-.004-.002a16.923 16.923 0 00-8.168-2.028h-.018c-9.493-.264-17.277 7.466-17.077 16.962v.02c-.202 9.496 7.581 17.23 17.074 16.966h.019a17.016 17.016 0 008.216-2.028l.111-.06h.004a15.009 15.009 0 005.466-5.014l-5.795-3.336a7.987 7.987 0 01-3.113 2.792 10.372 10.372 0 01-4.883 1.154 10.092 10.092 0 01-7.535-2.88l-.007-.006-.007-.007a10.405 10.405 0 01-2.819-7.591 10.406 10.406 0 012.819-7.59l.007-.008.007-.007a10.085 10.085 0 017.535-2.88 10.397 10.397 0 014.857 1.135m8.93-.518l-20.972 2.62a9.593 9.593 0 017.177-2.736 9.897 9.897 0 014.639 1.08 7.595 7.595 0 013.122 2.93l-.181-.315.423-.244m5.792-3.335l-5.792 3.335m-3.138-2.817h.001l-.227.445.225-.445h.001zm0 0a8.093 8.093 0 013.138 2.817m0 0c.091.14.177.282.259.428m-118.15 22.41v-.001H.348v-32.6h13.032v0h.012a15.223 15.223 0 0111.348 4.67h0l.003.004a15.956 15.956 0 014.57 11.613l-.001.013v.013a15.959 15.959 0 01-4.569 11.613h0l-.004.004a15.219 15.219 0 01-11.347 4.67zM7.581 7.59h-.5V26.91h.5v.497h5.79a9.141 9.141 0 006.866-2.717l.006-.006.005-.006a9.907 9.907 0 002.623-7.179 9.908 9.908 0 00-2.623-7.18l-.005-.005-.006-.006a9.146 9.146 0 00-6.866-2.717h-5.79zm34.296 6.067v.5h12.086v6.3H41.878v6.952H55.41v6.392H35.145v-32.6h20.024v6.389H41.878v6.067zm16.66-12.456h7.395l7.383 24.365.479 1.58.478-1.58 7.384-24.365h7.397l-10.691 32.6h-9.135l-10.69-32.6z" stroke="#000"/></g><defs><filter id="filter0_d" x="-4.151" y=".019" width="171.301" height="42.962" filterUnits="userSpaceOnUse" color-interpolation-filters="sRGB"><feFlood flood-opacity="0" result="BackgroundImageFix"/><feColorMatrix in="SourceAlpha" values="0 0 0 0 0 0 0 0 0 0 0 0 0 0 0 0 0 0 127 0"/><feOffset dy="4"/><feGaussianBlur stdDeviation="2"/><feColorMatrix values="0 0 0 0 0 0 0 0 0 0 0 0 0 0 0 0 0 0 0.25 0"/><feBlend in2="BackgroundImageFix" result="effect1_dropShadow"/><feBlend in="SourceGraphic" in2="effect1_dropShadow" result="shape"/></filter></defs></svg>