<svg xmlns="http://www.w3.org/2000/svg" viewBox="0 0 163 35">
  <path d="M0 .4v35h13.5c2.2.1 4.3-.4 6.4-1.2 2-.9 3.8-2.2 5.3-3.8 1.5-1.6 2.8-3.6 3.6-5.7.8-2.1 1.2-4.4 1.1-6.7.1-2.3-.3-4.6-1.1-6.7-.8-2.3-2-4.3-3.6-5.9-1.5-1.6-3.3-2.9-5.3-3.8-2-.9-4.2-1.3-6.4-1.2H0zm7.7 27.2V8.1h5.8c1.2 0 2.4.2 3.5.6 1.1.5 2.1 1.2 3 2.1.8 1 1.5 2.1 1.9 3.3.4 1.2.6 2.5.6 3.8.1 1.3-.1 2.6-.6 3.8-.4 1.2-1.1 2.3-1.9 3.3-.8.9-1.9 1.6-3 2.1s-2.3.7-3.5.6l-5.8-.1zm34.8-6.2h12.1v-7.6H42.5V8.1h13.3V.4h-21v35H56v-7.7H42.5v-6.3zm36.2 13.9l11-35h-8.4L73.8 26 66.3.4h-8.4l11 35h9.8zm14.4 0h7.7V.3h-7.7v35zm38.5-2.2c2.5-1.3 4.6-3.3 6-5.7l-6.7-3.8c-.7 1.3-1.8 2.4-3.2 3-1.4.7-3 1.1-4.7 1.1-1.3.1-2.6-.1-3.9-.6-1.2-.5-2.4-1.2-3.3-2.1-.9-1-1.6-2.1-2.1-3.4-.5-1.2-.7-2.6-.6-3.9-.1-1.3.1-2.7.6-3.9.5-1.2 1.2-2.4 2.1-3.4.9-.9 2.1-1.6 3.3-2.1 1.2-.5 2.5-.7 3.9-.6 1.6 0 3.2.3 4.6 1.1 1.3.7 2.4 1.7 3.2 3.1l6.7-3.8c-1.5-2.4-3.6-4.4-6.1-5.7C128.8 1 125.9.3 123 .3c-9.8-.3-17.8 7.7-17.6 17.5-.2 9.8 7.8 17.8 17.6 17.5 3.1-.1 6.1-.8 8.6-2.2zm17.9-11.7h12.1v-7.6h-12.1V8.1h13.3V.4h-21v35H163v-7.7h-13.5v-6.3z" fill-rule="evenodd" clip-rule="evenodd"/>
</svg>
